<?xml version="1.0" standalone="no"?>
<!DOCTYPE svg PUBLIC "-//W3C//DTD SVG 20010904//EN"
 "http://www.w3.org/TR/2001/REC-SVG-20010904/DTD/svg10.dtd">
<svg version="1.0" xmlns="http://www.w3.org/2000/svg"
 width="505.000000pt" height="505.000000pt" viewBox="0 0 505.000000 505.000000"
 preserveAspectRatio="xMidYMid meet">
<metadata>
Created by potrace 1.11, written by Peter Selinger 2001-2013
</metadata>
<g transform="translate(0.000000,505.000000) scale(0.100000,-0.100000)"
fill="#000000" stroke="none">
<path d="M2559 5027 c44 -17 28 -27 -34 -22 -27 2 -54 0 -60 -4 -20 -16 -72
-23 -169 -22 -85 1 -98 -1 -93 -14 5 -11 0 -15 -17 -15 -24 0 -106 -53 -106
-69 0 -5 -8 -12 -17 -14 -17 -4 -17 -5 0 -6 25 -2 21 -15 -10 -28 -39 -17
-168 -88 -228 -126 -27 -17 -81 -63 -120 -102 -38 -38 -109 -97 -158 -129
-105 -71 -132 -99 -59 -62 28 14 52 23 52 18 0 -4 -21 -28 -46 -52 -43 -43
-114 -164 -114 -197 0 -8 -8 -27 -18 -41 -16 -24 -46 -88 -47 -102 0 -3 -7
-16 -14 -28 -7 -13 -10 -26 -8 -29 3 -3 -4 -26 -15 -51 -11 -26 -24 -69 -28
-97 -5 -27 -11 -60 -14 -72 -3 -16 0 -23 10 -23 13 0 15 -12 9 -77 -4 -43 -11
-98 -17 -123 -15 -72 -27 -241 -18 -259 37 -71 38 -80 18 -139 -16 -46 -20
-86 -21 -207 -1 -82 2 -168 6 -190 4 -22 9 -55 12 -72 3 -18 6 -35 6 -38 0 -2
10 -28 22 -57 11 -29 21 -78 22 -108 2 -76 13 -118 33 -125 9 -3 34 -20 54
-38 l37 -32 -8 -90 c-7 -72 -6 -93 5 -106 18 -20 18 -53 1 -87 -8 -15 -21 -42
-30 -60 -21 -41 -21 -56 -2 -48 9 3 19 -3 25 -14 8 -14 8 -20 0 -20 -6 0 -5
-13 4 -35 8 -19 11 -35 5 -35 -5 0 -8 -3 -7 -7 1 -5 -2 -24 -7 -43 -7 -31 -9
-46 -14 -95 -1 -6 -14 -19 -31 -28 -16 -10 -30 -26 -30 -37 0 -10 -32 -47 -74
-84 -59 -53 -78 -78 -96 -124 -13 -31 -72 -131 -132 -222 -123 -186 -122 -185
-358 -317 -69 -38 -226 -137 -350 -220 -124 -82 -244 -160 -268 -173 l-42 -24
0 -198 0 -198 2036 0 2035 0 -7 23 c-15 50 -33 85 -72 136 -48 63 -192 214
-225 236 -21 13 -22 21 -21 115 0 84 -2 100 -15 101 -92 7 -106 14 -115 65 -4
19 -11 32 -17 29 -5 -4 -9 0 -9 8 0 8 -7 18 -16 21 -8 3 -13 10 -10 15 3 5 -1
26 -8 47 -8 22 -15 35 -16 29 0 -5 -8 6 -17 25 -27 56 -225 240 -258 240 -4 0
-13 7 -22 15 -13 14 -13 26 5 115 11 55 30 121 42 148 12 26 30 65 40 87 10
22 49 78 87 125 37 47 82 108 99 135 30 50 96 209 130 315 10 30 29 66 43 79
23 21 26 32 25 83 -1 32 -7 71 -14 87 -10 26 -9 33 10 59 15 20 23 49 26 88 3
33 9 78 14 101 6 23 12 61 15 85 9 73 16 96 31 102 8 3 14 13 14 21 0 9 5 13
10 10 6 -3 10 2 10 12 0 10 8 26 18 35 41 41 56 59 58 75 2 9 9 20 16 24 7 5
10 9 5 9 -4 0 0 11 9 24 8 14 15 29 15 33 -1 19 12 60 26 88 22 39 28 383 9
459 -8 29 -10 60 -5 71 4 11 11 29 15 40 4 11 9 49 10 84 3 68 10 84 24 61 8
-12 10 -12 10 -1 0 9 8 12 27 8 l28 -5 -30 27 c-37 34 -41 49 -18 67 15 11 15
13 3 14 -9 0 -22 6 -28 12 -10 10 -8 16 10 30 l23 17 -22 -4 c-16 -3 -24 2
-29 18 -4 12 -11 25 -16 28 -12 8 9 52 21 44 5 -3 11 2 15 10 3 8 16 15 28 15
13 0 29 4 37 9 22 14 -12 46 -35 33 -18 -10 -54 -5 -54 8 0 5 9 12 20 15 11 3
20 11 20 16 0 6 -7 6 -19 -1 -33 -17 -54 -13 -48 10 4 15 0 20 -13 20 -14 0
-21 10 -26 38 -3 20 -12 42 -19 47 -6 6 -13 15 -15 20 -1 6 -6 20 -11 33 -5
13 -9 27 -9 32 0 9 -44 46 -62 52 -6 2 -12 13 -13 24 -1 10 -5 27 -9 36 -10
23 1 38 27 38 22 1 22 1 2 15 -48 34 -62 49 -58 64 5 19 -64 111 -83 111 -8 0
-14 10 -14 23 0 12 -5 29 -10 37 -7 11 -10 7 -10 -18 0 -30 -2 -33 -22 -27
-13 4 -30 15 -40 26 -9 10 -21 19 -27 19 -5 0 -14 7 -19 17 -6 10 -16 14 -26
10 -10 -4 -25 1 -38 13 -12 10 -42 22 -67 25 -25 3 -62 13 -81 22 -82 37 -209
76 -260 80 -64 5 -110 17 -165 43 -22 10 -59 24 -82 31 -24 6 -40 16 -36 22 3
6 2 7 -4 4 -5 -3 -22 1 -38 9 -32 16 -53 20 -150 28 -66 6 -68 5 -36 -7z
m-419 -131 c0 -3 -4 -8 -10 -11 -5 -3 -10 -1 -10 4 0 6 5 11 10 11 6 0 10 -2
10 -4z m1561 -333 c7 -19 5 -23 -12 -23 -11 0 -17 5 -14 10 3 6 2 10 -3 10 -5
0 -9 7 -9 15 0 23 28 14 38 -12z"/>
<path d="M4075 4150 c-3 -5 -1 -10 4 -10 6 0 11 5 11 10 0 6 -2 10 -4 10 -3 0
-8 -4 -11 -10z"/>
</g>
</svg>
