<svg xmlns="http://www.w3.org/2000/svg" viewBox="0, 0, 1500, 1008" fill="#fff"><g fill-opacity=".5"><path d="M795.64 445.056h-129.6v.144h-86.254l129.173 129.173c22.666 22.665 59.414 22.665 82.08-.001l225.72-225.72c22.666-22.666 22.666-59.414 0-82.08l-10.26-10.26h.001L811.56 61.372h-.001l-20.52-20.52c-9.893-9.406-21.819-15.291-35.476-16.734-3.709 0-7.428-.266-11.127 0-13.389.964-25.971 7.492-35.477 16.734l-10.519 10.52v199.284h97.2c35.788.001 64.8 29.012 64.8 64.8v64.801c0 35.788-29.012 64.8-64.8 64.799zM948 696v95.894h-96c-13.347 0-24 10.745-24 24v48c0 13.255 10.653 24 24 24h96v24h-96c-26.694 0-48-21.491-48-48v-48c0-26.51 21.306-48 48-48h72V696h24zM972 767.894h24v144h-24v-144zM1164 767.894v24h-96c-13.255 0-24 10.745-24 24v48c0 13.255 10.745 24 24 24h96v48c0 26.51-21.49 48-48 48h-96v-24h96c13.832-.426 23.312-10.379 24-24v-24h-72c-26.51 0-48-21.491-48-48v-48c0-26.51 21.49-48 48-48h96zM1188 767.894h24v144h-24v-144zM1260 696v36h36v24h-36v155.894h-24V696h24zM1476 696v215.894h-24V696h24z"/><path d="M1428 911.894h-96c-26.51 0-48-21.491-48-48v-48c0-26.51 21.49-48 48-48h48c26.51 0 48 21.49 48 48v96zm-24-96c0-13.255-10.745-24-24-24h-48c-13.255 0-24 10.745-24 24v48c0 13.254 10.745 24 24 24h72v-72z"/></g><path d="M547.243 412.656l-64.004-64.004c-22.666-22.665-22.666-59.414 0-82.08l182.801-182.8v199.284h129.6c17.894.001 32.4 14.506 32.4 32.401v64.8c0 17.894-14.506 32.4-32.4 32.4l-248.397-.001zM24 791.894V696h24v71.894h72c26.51 0 48 21.49 48 48v48c0 26.51-21.49 48-48 48H24v-24h96c13.255 0 24-10.745 24-24v-48c0-13.255-10.745-24-24-24H24zM288 767.894c18.443.151 36.451 11.057 43.745 28.306l-.005.003c2.998 6.152 3.964 12.928 4.26 19.691v4.507l-119.288 49.216c2.623 11.102 12.582 17.002 23.288 18.277h96v24h-96c-20.441-.119-39.669-13.859-45.793-33.558l.056-.023c-1.694-4.619-2.025-9.552-2.263-14.419v-48c0-26.51 21.49-48 48-48h48zm21.492 37.467c-4.06-8.975-12.162-12.478-21.492-13.467h-48c-13.255 0-23.994 10.745-23.994 24v28.059l93.481-38.59.005-.002zM384 696v215.894h-24V696h24zM708 911.894h-96c-26.51 0-48-21.49-48-48v-48c0-26.51 21.49-48 48-48h48c26.51 0 48 21.49 48 48v96zm-24-96c0-13.255-10.745-24-24-24h-48c-13.255 0-24 10.745-24 24v48c0 13.255 10.745 24 24 24h72v-72zM549.472 767.894l-90.426 120H552v24H410.909l90.427-120H408v-24h141.472z"/></svg>