<svg xmlns="http://www.w3.org/2000/svg" viewBox="0, 0, 2016, 464" class="logo"><path d="M267.998 335.894h-96V336h-63.891l95.683 95.683c16.79 16.79 44.011 16.79 60.8 0l167.2-167.2c16.79-16.789 16.79-44.011 0-60.8l-7.6-7.6h.001l-144.4-144.4h-.001l-15.2-15.2c-7.328-6.967-16.162-11.326-26.279-12.395-2.747 0-5.501-.198-8.241 0-9.918.713-19.238 5.549-26.28 12.395l-7.792 7.792v147.619h72c26.51 0 48 21.49 48 48v48c0 26.509-21.49 48-48 48z" fill-opacity=".5"/><path d="M84 311.894l-47.41-47.411c-16.789-16.789-16.789-44.01 0-60.8L171.998 68.275v147.619h96c13.255 0 24 10.745 24 24v48c0 13.255-10.745 24-24 24H84z"/><g fill-opacity=".5"><path d="M1464 120v95.894h-96c-13.347 0-24 10.745-24 24v48c0 13.255 10.653 24 24 24h96v24h-96c-26.694 0-48-21.491-48-48v-48c0-26.51 21.306-48 48-48h72V120h24zM1488 191.894h24v144h-24v-144zM1680 191.894v24h-96c-13.255 0-24 10.745-24 24v48c0 13.255 10.745 24 24 24h96v48c0 26.51-21.49 48-48 48h-96v-24h96c13.832-.426 23.312-10.379 24-24v-24h-72c-26.51 0-48-21.491-48-48v-48c0-26.51 21.49-48 48-48h96zM1704 191.894h24v144h-24v-144zM1776 120v36h36v24h-36v155.894h-24V120h24zM1992 120v215.894h-24V120h24z"/><path d="M1944 335.894h-96c-26.51 0-48-21.491-48-48v-48c0-26.51 21.49-48 48-48h48c26.51 0 48 21.49 48 48v96zm-24-96c0-13.255-10.745-24-24-24h-48c-13.255 0-24 10.745-24 24v48c0 13.255 10.745 24 24 24h72v-72z"/></g><path d="M540 215.894V120h24v71.894h72c26.51 0 48 21.49 48 48v48c0 26.509-21.49 48-48 48h-96v-24h96c13.255 0 24-10.745 24-24v-48c0-13.255-10.745-24-24-24h-96zM804 191.894c18.443.151 36.451 11.056 43.745 28.306l-.005.002c2.998 6.153 3.964 12.929 4.26 19.692v4.507l-119.288 49.216c2.623 11.102 12.582 17.002 23.288 18.277h96v24h-96c-20.441-.119-39.669-13.859-45.793-33.558l.056-.023c-1.694-4.619-2.025-9.552-2.263-14.419v-48c0-26.51 21.49-48 48-48h48zm21.492 37.466c-4.06-8.974-12.162-12.477-21.492-13.466h-48c-13.255 0-23.994 10.745-23.994 24v28.059l93.481-38.59.005-.003zM900 120v215.894h-24V120h24zM1224 335.894h-96c-26.51 0-48-21.491-48-48v-48c0-26.51 21.49-48 48-48h48c26.51 0 48 21.49 48 48v96zm-24-96c0-13.255-10.745-24-24-24h-48c-13.255 0-24 10.745-24 24v48c0 13.255 10.745 24 24 24h72v-72zM1065.472 191.894l-90.426 120H1068v24H926.909l90.427-120H924v-24h141.472z"/></svg>
