<svg viewBox="0 0 1536 1792" xmlns="http://www.w3.org/2000/svg" fill-rule="evenodd" clip-rule="evenodd" stroke-linejoin="round" stroke-miterlimit="1.414"><path d="M1248 1664H288c-79.333 0-147.167-28.167-203.5-84.5S0 1455.333 0 1376V416c0-79.333 28.167-147.167 84.5-203.5S208.667 128 288 128h960c79.333 0 147.167 28.167 203.5 84.5S1536 336.667 1536 416v960c0 79.333-28.167 147.167-84.5 203.5S1327.334 1664 1248 1664zm-355.225-279.011c176.154-46.332 316.985-187.163 365.152-364.693 10.551-39.91 11.927-52.296 11.927-124.775 0-72.48-1.376-84.866-11.927-124.776-48.167-177.53-187.622-316.985-365.152-365.152-39.909-10.551-52.295-11.927-124.775-11.927s-84.866 1.376-124.775 11.927C465.695 453.76 326.24 593.215 278.073 770.745c-10.551 39.91-11.927 52.296-11.927 124.776 0 65.14 1.835 86.241 9.174 112.389l8.716 32.112 138.996 1.376 138.538.917v312.398l24.313 10.551c20.643 9.174 76.608 25.23 113.307 32.111 6.422.917 42.662 1.376 80.278.459 55.966-.918 77.068-3.211 113.307-12.845zm-202.76-118.353l15.139 2.294c7.798 1.376 21.101 3.669 28.441 4.587 22.937 3.211 88.536-1.376 123.399-9.175 17.891-4.128 53.213-16.973 78.444-29.359 81.195-39.451 132.574-90.829 172.025-172.025 27.982-57.341 38.533-104.132 38.533-167.437 0-63.306-10.551-110.096-38.533-167.438-39.451-81.196-90.83-132.574-172.025-172.025-57.342-27.983-104.133-38.534-167.438-38.534-63.305 0-110.096 10.551-167.438 38.534-81.195 39.451-132.574 90.829-172.025 172.025-24.771 50.919-36.698 97.251-38.075 149.088l-.917 34.405 85.324 1.376 85.325.918 3.67-37.157c9.633-113.766 72.48-191.292 175.695-217.44 20.643-5.505 47.708-6.881 109.178-5.964l82.113 1.377v123.858l-89.911 2.293c-88.536 2.294-89.912 2.294-108.72 15.138-25.689 16.974-38.534 43.121-41.286 84.407l-2.294 33.488 121.106.917 121.105 1.377v123.858l-120.188 1.376-120.647.917v224.321z" fill="#333"/></svg>