<svg viewBox="0 0 1536 1792" xmlns="http://www.w3.org/2000/svg" fill-rule="evenodd" clip-rule="evenodd" stroke-linejoin="round" stroke-miterlimit="1.414"><path d="M1248 1664H288c-79.333 0-147.167-28.167-203.5-84.5S0 1455.333 0 1376V416c0-79.333 28.167-147.167 84.5-203.5S208.667 128 288 128h960c79.333 0 147.167 28.167 203.5 84.5S1536 336.667 1536 416v960c0 79.333-28.167 147.167-84.5 203.5S1327.334 1664 1248 1664zm-490.122-299.057c-21.41-65.786-102.766-316.864-144.029-442.597-23.356-71.625-42.43-131.572-42.43-133.129 0-1.558 88.364-3.115 196.58-3.115 108.216 0 196.58 1.168 196.58 2.725 0 1.557-7.785 26.47-17.128 55.665-9.342 28.806-37.759 115.613-62.672 192.688-24.913 77.075-60.336 185.68-78.632 241.345-17.906 55.666-34.255 105.102-35.423 109.774-2.336 7.007-5.061 1.946-12.846-23.356zm-25.692 8.564c-22.188-16.739-142.861-104.324-357.347-259.252-74.739-54.498-139.357-103.545-142.861-109.384-3.892-5.839-7.007-14.793-7.007-19.853 0-10.51 59.169-195.023 62.672-195.023 1.168 0 53.719 66.175 116.781 146.754 264.312 339.051 349.951 449.214 349.951 451.16 0 2.336-.779 1.947-22.189-14.402zm49.437 13.624c0-1.168 28.417-38.538 63.451-82.914 34.645-44.376 139.358-178.284 232.392-297.4 93.035-119.116 170.11-216.822 171.278-216.822 2.725 0 62.672 186.848 62.283 195.412-.39 15.182-10.51 27.638-40.484 49.048-56.833 41.262-360.851 261.587-425.469 308.689-35.034 25.302-63.451 45.155-63.451 43.987zM425.833 782.21c75.908 0 137.801-1.168 137.801-2.725 0-1.557-7.007-23.745-15.182-49.826-8.563-25.692-33.087-101.988-54.886-169.332-51.773-161.156-50.216-157.263-65.008-158.821-6.228-.778-13.235 1.168-15.571 3.893-3.892 4.671-11.288 26.86-75.128 223.05-15.182 47.102-32.699 100.82-38.927 119.894l-11.289 33.867h138.19zm822.132 0l-35.034-107.827c-19.463-59.558-46.322-143.251-59.947-185.681-13.624-42.819-26.859-79.799-29.195-82.914-5.449-6.617-24.913-6.617-29.584 0-1.946 2.336-13.235 35.424-25.302 72.793-12.068 37.37-38.927 119.895-59.169 182.956-20.631 63.061-37.37 116.002-37.37 117.559 0 1.557 61.894 3.114 137.801 3.114h137.8z" fill="#333"/></svg>