<svg clip-rule="evenodd" fill-rule="evenodd" stroke-linejoin="round" stroke-miterlimit="2" viewBox="0 0 1536 1792" xmlns="http://www.w3.org/2000/svg"><path fill="currentColor" d="m768.547 792.721c62.953-90.298 188.858-90.298 251.811-45.149 62.954 45.149 62.954 135.446 0 225.744-44.068 67.724-157.382 135.447-251.811 180.596-94.428-45.149-207.742-112.872-251.809-180.596-62.953-90.298-62.953-180.595 0-225.744 62.952-45.149 188.857-45.149 251.809 45.149z"/><path fill="currentColor" d="m1536 416v960c0 79.333-28.167 147.167-84.5 203.5s-124.167 84.5-203.5 84.5h-960c-79.333 0-147.167-28.167-203.5-84.5s-84.5-124.167-84.5-203.5v-960c0-79.333 28.167-147.167 84.5-203.5s124.167-84.5 203.5-84.5h960c79.333 0 147.167 28.167 203.5 84.5s84.5 124.167 84.5 203.5zm-1077.63 912.619h-128.518c-86.019 0-155.856-69.837-155.856-155.856v-536.592c0-86.018 69.836-155.855 155.856-155.855h876.288c86.02 0 155.856 69.837 155.856 155.855v536.592c0 86.019-69.836 155.855-155.856 155.856h-560.581l-189.54 137.024z"/></svg>
